<mxfile host="drawio-plugin" modified="2024-12-25T14:11:27.306Z" agent="Mozilla/5.0 (Windows NT 10.0; Win64; x64) AppleWebKit/537.36 (KHTML, like Gecko) Chrome/122.0.0.0 Safari/537.36" etag="LeEOb7X9p9wtQUQr2AXA" version="22.1.22" type="embed" pages="3">
  <diagram id="2f404044-711c-603c-8f00-f6bb4c023d3c" name="Page-1">
    <mxGraphModel dx="852" dy="654" grid="1" gridSize="10" guides="1" tooltips="1" connect="1" arrows="1" fold="1" page="1" pageScale="1" pageWidth="1169" pageHeight="827" background="none" math="0" shadow="0">
      <root>
        <mxCell id="0" />
        <mxCell id="1" parent="0" />
        <mxCell id="21" value="" style="swimlane;shadow=0;strokeColor=#4277BB;fillColor=#ffffff;fontColor=default;align=center;startSize=0;collapsible=0;strokeWidth=3;fontStyle=1" parent="1" vertex="1">
          <mxGeometry x="120" y="260" width="610" height="590" as="geometry" />
        </mxCell>
        <mxCell id="r_5fhOf4CH7N56mi4xN--83" style="edgeStyle=orthogonalEdgeStyle;rounded=0;orthogonalLoop=1;jettySize=auto;html=1;" parent="21" source="r_5fhOf4CH7N56mi4xN--68" target="r_5fhOf4CH7N56mi4xN--67" edge="1">
          <mxGeometry relative="1" as="geometry" />
        </mxCell>
        <mxCell id="r_5fhOf4CH7N56mi4xN--92" value="HTTP&lt;br&gt;&lt;span style=&quot;font-style: normal;&quot;&gt;&lt;font style=&quot;font-size: 11px;&quot;&gt;JSON&lt;/font&gt;&lt;/span&gt;" style="edgeLabel;html=1;align=center;verticalAlign=middle;resizable=0;points=[];fontSize=16;fontStyle=2" parent="r_5fhOf4CH7N56mi4xN--83" vertex="1" connectable="0">
          <mxGeometry x="-0.1329" y="-1" relative="1" as="geometry">
            <mxPoint as="offset" />
          </mxGeometry>
        </mxCell>
        <mxCell id="22" value="ВНЕШНЯЯ ОБЛАСТЬ" style="text;html=1;align=left;verticalAlign=middle;fontColor=default;shadow=0;dashed=0;strokeColor=none;fillColor=none;labelBackgroundColor=none;fontStyle=1;fontSize=14;spacingLeft=5;" parent="21" vertex="1">
          <mxGeometry y="10" width="150" height="20" as="geometry" />
        </mxCell>
        <mxCell id="43" value="" style="line;strokeWidth=3;direction=south;html=1;shadow=0;labelBackgroundColor=none;fillColor=none;gradientColor=none;fontSize=12;fontColor=default;align=right;strokeColor=#4277BB;fontStyle=1" parent="21" vertex="1">
          <mxGeometry x="225" width="10" height="590" as="geometry" />
        </mxCell>
        <mxCell id="48" value="ВНУТРЕННЯЯ ОБЛАСТЬ" style="text;html=1;align=left;verticalAlign=middle;fontColor=default;shadow=0;dashed=0;strokeColor=none;fillColor=none;labelBackgroundColor=none;fontStyle=1;fontSize=14;spacingLeft=5;" parent="21" vertex="1">
          <mxGeometry x="230" y="10" width="150" height="20" as="geometry" />
        </mxCell>
        <mxCell id="50" value="Компонент приложения" style="rounded=0;html=1;shadow=0;labelBackgroundColor=none;strokeColor=none;strokeWidth=2;fillColor=#EBC01A;gradientColor=none;fontSize=12;fontColor=default;align=left;labelPosition=right;verticalLabelPosition=middle;verticalAlign=middle;spacingLeft=5;fontStyle=1" parent="21" vertex="1">
          <mxGeometry x="20" y="540" width="20" height="10" as="geometry" />
        </mxCell>
        <mxCell id="53" value="Хранилище данных" style="rounded=0;html=1;shadow=0;labelBackgroundColor=none;strokeColor=none;strokeWidth=2;fillColor=#335D81;gradientColor=none;fontSize=12;fontColor=default;align=left;labelPosition=right;verticalLabelPosition=middle;verticalAlign=middle;spacingLeft=5;fontStyle=1" parent="21" vertex="1">
          <mxGeometry x="20" y="560" width="20" height="10" as="geometry" />
        </mxCell>
        <mxCell id="59" value="ЛЕГЕНДА" style="text;html=1;align=left;verticalAlign=middle;fontColor=default;shadow=0;dashed=0;strokeColor=none;fillColor=none;labelBackgroundColor=none;fontStyle=1;fontSize=14;spacingLeft=0;" parent="21" vertex="1">
          <mxGeometry x="20" y="510" width="150" height="20" as="geometry" />
        </mxCell>
        <mxCell id="r_5fhOf4CH7N56mi4xN--62" value="LICHESS.ORG" style="image;aspect=fixed;perimeter=ellipsePerimeter;html=1;align=center;shadow=0;dashed=0;fontColor=default;labelBackgroundColor=default;fontSize=12;spacingTop=3;image=img/lib/ibm/applications/app_server.svg;fontStyle=1" parent="21" vertex="1">
          <mxGeometry x="64" y="204" width="60" height="60" as="geometry" />
        </mxCell>
        <mxCell id="r_5fhOf4CH7N56mi4xN--84" style="edgeStyle=orthogonalEdgeStyle;rounded=0;orthogonalLoop=1;jettySize=auto;html=1;" parent="21" source="r_5fhOf4CH7N56mi4xN--64" target="r_5fhOf4CH7N56mi4xN--68" edge="1">
          <mxGeometry relative="1" as="geometry">
            <mxPoint x="122" y="410" as="sourcePoint" />
            <mxPoint x="288" y="410" as="targetPoint" />
          </mxGeometry>
        </mxCell>
        <mxCell id="r_5fhOf4CH7N56mi4xN--86" value="HTTP&lt;br&gt;&lt;span style=&quot;font-style: normal; font-size: 11px;&quot;&gt;HTML&lt;br&gt;CSS&lt;br&gt;JS&lt;/span&gt;" style="edgeLabel;html=1;align=center;verticalAlign=middle;resizable=0;points=[];fontSize=16;fontStyle=2;labelBackgroundColor=default;" parent="r_5fhOf4CH7N56mi4xN--84" vertex="1" connectable="0">
          <mxGeometry x="-0.1271" y="-3" relative="1" as="geometry">
            <mxPoint x="4" y="25" as="offset" />
          </mxGeometry>
        </mxCell>
        <mxCell id="r_5fhOf4CH7N56mi4xN--64" value="ПОЛЬЗОВАТЕЛЬ&lt;br&gt;(Браузер)" style="image;aspect=fixed;perimeter=ellipsePerimeter;html=1;align=center;shadow=0;dashed=0;fontColor=default;labelBackgroundColor=default;fontSize=12;spacingTop=3;image=img/lib/ibm/users/user.svg;fontStyle=1" parent="21" vertex="1">
          <mxGeometry x="64" y="380" width="60" height="60" as="geometry" />
        </mxCell>
        <mxCell id="r_5fhOf4CH7N56mi4xN--76" style="edgeStyle=orthogonalEdgeStyle;rounded=0;orthogonalLoop=1;jettySize=auto;html=1;fontColor=default;fontStyle=1" parent="21" target="r_5fhOf4CH7N56mi4xN--75" edge="1">
          <mxGeometry relative="1" as="geometry">
            <mxPoint x="320" y="207.00000000000023" as="sourcePoint" />
            <mxPoint x="461.7365948759857" y="93.05882352941171" as="targetPoint" />
            <Array as="points">
              <mxPoint x="330" y="207" />
              <mxPoint x="330" y="100" />
            </Array>
          </mxGeometry>
        </mxCell>
        <mxCell id="r_5fhOf4CH7N56mi4xN--91" value="TCP/IP&lt;br&gt;&lt;span style=&quot;font-style: normal;&quot;&gt;&lt;font style=&quot;font-size: 11px;&quot;&gt;SQL&lt;br&gt;Tables&lt;br&gt;&lt;/font&gt;&lt;/span&gt;" style="edgeLabel;html=1;align=center;verticalAlign=middle;resizable=0;points=[];fontSize=16;fontStyle=2;labelBackgroundColor=default;" parent="r_5fhOf4CH7N56mi4xN--76" vertex="1" connectable="0">
          <mxGeometry x="0.3313" y="-3" relative="1" as="geometry">
            <mxPoint x="57" y="-69" as="offset" />
          </mxGeometry>
        </mxCell>
        <mxCell id="62" value="PROTOBUF&lt;br&gt;&lt;span style=&quot;font-style: normal;&quot;&gt;&lt;font style=&quot;font-size: 11px;&quot;&gt;gRPC&lt;br&gt;&lt;/font&gt;&lt;/span&gt;" style="edgeLabel;html=1;align=center;verticalAlign=middle;resizable=0;points=[];fontSize=16;fontStyle=2;labelBackgroundColor=default;" vertex="1" connectable="0" parent="r_5fhOf4CH7N56mi4xN--76">
          <mxGeometry x="0.3313" y="-3" relative="1" as="geometry">
            <mxPoint x="132" y="71" as="offset" />
          </mxGeometry>
        </mxCell>
        <mxCell id="61" style="edgeStyle=orthogonalEdgeStyle;rounded=0;orthogonalLoop=1;jettySize=auto;html=1;entryX=0.5;entryY=1;entryDx=0;entryDy=0;" edge="1" parent="21" source="r_5fhOf4CH7N56mi4xN--67" target="60">
          <mxGeometry relative="1" as="geometry" />
        </mxCell>
        <mxCell id="r_5fhOf4CH7N56mi4xN--67" value="БЭКЕНД-СЕРВЕР&lt;br&gt;(ASP.NET)" style="image;aspect=fixed;perimeter=ellipsePerimeter;html=1;align=center;shadow=0;dashed=0;fontColor=default;labelBackgroundColor=default;fontSize=12;spacingTop=3;image=img/lib/ibm/applications/app_server.svg;fontStyle=1" parent="21" vertex="1">
          <mxGeometry x="290" y="204" width="60" height="60" as="geometry" />
        </mxCell>
        <mxCell id="r_5fhOf4CH7N56mi4xN--73" style="edgeStyle=orthogonalEdgeStyle;rounded=0;orthogonalLoop=1;jettySize=auto;html=1;fontColor=default;fontStyle=1" parent="21" source="r_5fhOf4CH7N56mi4xN--68" target="r_5fhOf4CH7N56mi4xN--72" edge="1">
          <mxGeometry relative="1" as="geometry" />
        </mxCell>
        <mxCell id="r_5fhOf4CH7N56mi4xN--89" value="RESP3&lt;br&gt;&lt;span style=&quot;font-style: normal;&quot;&gt;&lt;font style=&quot;font-size: 11px;&quot;&gt;JSON&lt;/font&gt;&lt;/span&gt;" style="edgeLabel;html=1;align=center;verticalAlign=middle;resizable=0;points=[];fontSize=16;fontStyle=2" parent="r_5fhOf4CH7N56mi4xN--73" vertex="1" connectable="0">
          <mxGeometry x="0.1563" y="1" relative="1" as="geometry">
            <mxPoint x="-21" y="1" as="offset" />
          </mxGeometry>
        </mxCell>
        <mxCell id="r_5fhOf4CH7N56mi4xN--68" value="КЛИЕНТСКОЕ&lt;br&gt;ПРИЛОЖЕНИЕ&lt;br&gt;(Angular)" style="image;aspect=fixed;perimeter=ellipsePerimeter;html=1;align=center;shadow=0;dashed=0;fontColor=default;labelBackgroundColor=default;fontSize=12;spacingTop=3;image=img/lib/ibm/applications/api_developer_portal.svg;fontStyle=1" parent="21" vertex="1">
          <mxGeometry x="290" y="380" width="60" height="60" as="geometry" />
        </mxCell>
        <mxCell id="r_5fhOf4CH7N56mi4xN--71" value="" style="html=1;labelBackgroundColor=#ffffff;endArrow=classic;endFill=1;endSize=6;jettySize=auto;orthogonalLoop=1;strokeWidth=1;fontSize=14;rounded=0;fontColor=default;fontStyle=1;edgeStyle=orthogonalEdgeStyle;" parent="21" source="r_5fhOf4CH7N56mi4xN--67" target="r_5fhOf4CH7N56mi4xN--62" edge="1">
          <mxGeometry width="60" height="60" relative="1" as="geometry">
            <mxPoint x="540" y="231" as="sourcePoint" />
            <mxPoint x="600" y="171" as="targetPoint" />
          </mxGeometry>
        </mxCell>
        <mxCell id="r_5fhOf4CH7N56mi4xN--87" value="HTTP&lt;br&gt;&lt;span style=&quot;font-style: normal; font-size: 11px;&quot;&gt;JSON&lt;/span&gt;" style="edgeLabel;html=1;align=center;verticalAlign=middle;resizable=0;points=[];fontSize=16;fontStyle=2" parent="r_5fhOf4CH7N56mi4xN--71" vertex="1" connectable="0">
          <mxGeometry x="0.1898" y="-4" relative="1" as="geometry">
            <mxPoint x="7" y="14" as="offset" />
          </mxGeometry>
        </mxCell>
        <mxCell id="r_5fhOf4CH7N56mi4xN--72" value="ХРАНИЛИЩЕ&lt;br&gt;ДАННЫХ&lt;br&gt;О ШАХМАТИСТАХ&lt;br&gt;И КЛУБАХ&lt;br&gt;&lt;span style=&quot;font-weight: normal;&quot;&gt;КЭШ ЗАПРОСОВ&lt;/span&gt;&lt;br&gt;(Redis)" style="image;aspect=fixed;perimeter=ellipsePerimeter;html=1;align=center;shadow=0;dashed=0;fontColor=default;labelBackgroundColor=default;fontSize=12;spacingTop=3;image=img/lib/ibm/data/caches.svg;fontStyle=1" parent="21" vertex="1">
          <mxGeometry x="490" y="380" width="60" height="60" as="geometry" />
        </mxCell>
        <mxCell id="r_5fhOf4CH7N56mi4xN--74" style="rounded=0;orthogonalLoop=1;jettySize=auto;html=1;edgeStyle=orthogonalEdgeStyle;fontColor=default;fontStyle=1" parent="21" source="r_5fhOf4CH7N56mi4xN--67" target="r_5fhOf4CH7N56mi4xN--72" edge="1">
          <mxGeometry relative="1" as="geometry">
            <Array as="points">
              <mxPoint x="520" y="260" />
            </Array>
          </mxGeometry>
        </mxCell>
        <mxCell id="r_5fhOf4CH7N56mi4xN--75" value="ХРАНИЛИЩЕ&lt;br&gt;ПОЛЬЗОВАТЕЛЬСКИХ&lt;br&gt;ДАННЫХ&lt;br&gt;(PostgreSQL)" style="image;aspect=fixed;perimeter=ellipsePerimeter;html=1;align=center;shadow=0;dashed=0;fontColor=default;labelBackgroundColor=default;fontSize=12;spacingTop=3;image=img/lib/ibm/data/data_services.svg;fontStyle=1" parent="21" vertex="1">
          <mxGeometry x="300" y="40" width="60" height="60" as="geometry" />
        </mxCell>
        <mxCell id="r_5fhOf4CH7N56mi4xN--82" style="edgeStyle=orthogonalEdgeStyle;rounded=0;orthogonalLoop=1;jettySize=auto;html=1;" parent="21" source="r_5fhOf4CH7N56mi4xN--93" target="r_5fhOf4CH7N56mi4xN--67" edge="1">
          <mxGeometry relative="1" as="geometry">
            <mxPoint x="124.99994232981771" y="100.05882352941171" as="sourcePoint" />
            <Array as="points">
              <mxPoint x="300" y="100" />
            </Array>
          </mxGeometry>
        </mxCell>
        <mxCell id="r_5fhOf4CH7N56mi4xN--88" value="HTTP&lt;br&gt;&lt;span style=&quot;font-style: normal;&quot;&gt;&lt;font style=&quot;font-size: 11px;&quot;&gt;JSON&lt;/font&gt;&lt;/span&gt;" style="edgeLabel;html=1;align=center;verticalAlign=middle;resizable=0;points=[];fontSize=16;fontStyle=2" parent="r_5fhOf4CH7N56mi4xN--82" vertex="1" connectable="0">
          <mxGeometry x="-0.5546" y="3" relative="1" as="geometry">
            <mxPoint x="10" y="12" as="offset" />
          </mxGeometry>
        </mxCell>
        <mxCell id="r_5fhOf4CH7N56mi4xN--90" value="RESP3&lt;br&gt;&lt;span style=&quot;font-style: normal;&quot;&gt;&lt;font style=&quot;font-size: 11px;&quot;&gt;JSON&lt;/font&gt;&lt;/span&gt;" style="edgeLabel;html=1;align=center;verticalAlign=middle;resizable=0;points=[];fontSize=16;fontStyle=2" parent="21" vertex="1" connectable="0">
          <mxGeometry x="399.99746852442695" y="242.99632906663032" as="geometry">
            <mxPoint x="41" y="22" as="offset" />
          </mxGeometry>
        </mxCell>
        <mxCell id="r_5fhOf4CH7N56mi4xN--93" value="ПОЛЬЗОВАТЕЛИ API" style="image;aspect=fixed;perimeter=ellipsePerimeter;html=1;align=center;shadow=0;dashed=0;fontColor=#000000;labelBackgroundColor=default;fontSize=12;spacingTop=3;image=img/lib/ibm/users/browser.svg;fontStyle=1" parent="21" vertex="1">
          <mxGeometry x="65" y="70" width="60" height="60" as="geometry" />
        </mxCell>
        <mxCell id="60" value="ML-СЕРВИС&lt;br&gt;ПРОГНОЗА РЕЙТИНГОВ&lt;br&gt;(Python)" style="image;aspect=fixed;perimeter=ellipsePerimeter;html=1;align=center;shadow=0;dashed=0;fontColor=default;labelBackgroundColor=default;fontSize=12;spacingTop=3;image=img/lib/ibm/applications/actionable_insight.svg;verticalAlign=middle;fillColor=#ffffff;strokeColor=#4277BB;fontStyle=1;startSize=0;strokeWidth=3;" vertex="1" parent="21">
          <mxGeometry x="490" y="40" width="60" height="60" as="geometry" />
        </mxCell>
      </root>
    </mxGraphModel>
  </diagram>
  <diagram id="EriS0UqzklPit_h6l2Fv" name="EngVer">
    <mxGraphModel dx="852" dy="654" grid="1" gridSize="10" guides="1" tooltips="1" connect="1" arrows="1" fold="1" page="1" pageScale="1" pageWidth="827" pageHeight="1169" math="0" shadow="0">
      <root>
        <mxCell id="0" />
        <mxCell id="1" parent="0" />
        <mxCell id="6wxuXiDSxbBkrueSinT8-1" value="" style="swimlane;shadow=0;strokeColor=#4277BB;fillColor=#ffffff;fontColor=default;align=right;startSize=0;collapsible=0;strokeWidth=3;fontStyle=1" parent="1" vertex="1">
          <mxGeometry x="120" y="260" width="580" height="590" as="geometry" />
        </mxCell>
        <mxCell id="6wxuXiDSxbBkrueSinT8-2" style="edgeStyle=orthogonalEdgeStyle;rounded=0;orthogonalLoop=1;jettySize=auto;html=1;" parent="6wxuXiDSxbBkrueSinT8-1" source="6wxuXiDSxbBkrueSinT8-19" target="6wxuXiDSxbBkrueSinT8-16" edge="1">
          <mxGeometry relative="1" as="geometry" />
        </mxCell>
        <mxCell id="6wxuXiDSxbBkrueSinT8-3" value="HTTP&lt;br&gt;&lt;span style=&quot;font-style: normal;&quot;&gt;&lt;font style=&quot;font-size: 11px;&quot;&gt;JSON&lt;/font&gt;&lt;/span&gt;" style="edgeLabel;html=1;align=center;verticalAlign=middle;resizable=0;points=[];fontSize=16;fontStyle=2" parent="6wxuXiDSxbBkrueSinT8-2" vertex="1" connectable="0">
          <mxGeometry x="-0.1329" y="-1" relative="1" as="geometry">
            <mxPoint as="offset" />
          </mxGeometry>
        </mxCell>
        <mxCell id="6wxuXiDSxbBkrueSinT8-4" value="EXTERNAL CONTEXT" style="text;html=1;align=left;verticalAlign=middle;fontColor=default;shadow=0;dashed=0;strokeColor=none;fillColor=none;labelBackgroundColor=none;fontStyle=1;fontSize=14;spacingLeft=5;" parent="6wxuXiDSxbBkrueSinT8-1" vertex="1">
          <mxGeometry y="10" width="150" height="20" as="geometry" />
        </mxCell>
        <mxCell id="6wxuXiDSxbBkrueSinT8-5" value="" style="line;strokeWidth=3;direction=south;html=1;shadow=0;labelBackgroundColor=none;fillColor=none;gradientColor=none;fontSize=12;fontColor=default;align=right;strokeColor=#4277BB;fontStyle=1" parent="6wxuXiDSxbBkrueSinT8-1" vertex="1">
          <mxGeometry x="225" width="10" height="590" as="geometry" />
        </mxCell>
        <mxCell id="6wxuXiDSxbBkrueSinT8-6" value="INTERNAL CONTEXT" style="text;html=1;align=left;verticalAlign=middle;fontColor=default;shadow=0;dashed=0;strokeColor=none;fillColor=none;labelBackgroundColor=none;fontStyle=1;fontSize=14;spacingLeft=5;" parent="6wxuXiDSxbBkrueSinT8-1" vertex="1">
          <mxGeometry x="230" y="10" width="150" height="20" as="geometry" />
        </mxCell>
        <mxCell id="6wxuXiDSxbBkrueSinT8-7" value="App component" style="rounded=0;html=1;shadow=0;labelBackgroundColor=none;strokeColor=none;strokeWidth=2;fillColor=#EBC01A;gradientColor=none;fontSize=12;fontColor=default;align=left;labelPosition=right;verticalLabelPosition=middle;verticalAlign=middle;spacingLeft=5;fontStyle=1" parent="6wxuXiDSxbBkrueSinT8-1" vertex="1">
          <mxGeometry x="20" y="540" width="20" height="10" as="geometry" />
        </mxCell>
        <mxCell id="6wxuXiDSxbBkrueSinT8-8" value="Data storage" style="rounded=0;html=1;shadow=0;labelBackgroundColor=none;strokeColor=none;strokeWidth=2;fillColor=#335D81;gradientColor=none;fontSize=12;fontColor=default;align=left;labelPosition=right;verticalLabelPosition=middle;verticalAlign=middle;spacingLeft=5;fontStyle=1" parent="6wxuXiDSxbBkrueSinT8-1" vertex="1">
          <mxGeometry x="20" y="560" width="20" height="10" as="geometry" />
        </mxCell>
        <mxCell id="6wxuXiDSxbBkrueSinT8-9" value="LEGEND" style="text;html=1;align=left;verticalAlign=middle;fontColor=default;shadow=0;dashed=0;strokeColor=none;fillColor=none;labelBackgroundColor=none;fontStyle=1;fontSize=14;spacingLeft=0;" parent="6wxuXiDSxbBkrueSinT8-1" vertex="1">
          <mxGeometry x="20" y="510" width="150" height="20" as="geometry" />
        </mxCell>
        <mxCell id="6wxuXiDSxbBkrueSinT8-10" value="LICHESS.ORG" style="image;aspect=fixed;perimeter=ellipsePerimeter;html=1;align=center;shadow=0;dashed=0;fontColor=default;labelBackgroundColor=default;fontSize=12;spacingTop=3;image=img/lib/ibm/applications/app_server.svg;fontStyle=1" parent="6wxuXiDSxbBkrueSinT8-1" vertex="1">
          <mxGeometry x="64" y="204" width="60" height="60" as="geometry" />
        </mxCell>
        <mxCell id="6wxuXiDSxbBkrueSinT8-11" style="edgeStyle=orthogonalEdgeStyle;rounded=0;orthogonalLoop=1;jettySize=auto;html=1;" parent="6wxuXiDSxbBkrueSinT8-1" source="6wxuXiDSxbBkrueSinT8-13" target="6wxuXiDSxbBkrueSinT8-19" edge="1">
          <mxGeometry relative="1" as="geometry">
            <mxPoint x="122" y="410" as="sourcePoint" />
            <mxPoint x="288" y="410" as="targetPoint" />
          </mxGeometry>
        </mxCell>
        <mxCell id="6wxuXiDSxbBkrueSinT8-12" value="HTTP&lt;br&gt;&lt;span style=&quot;font-style: normal; font-size: 11px;&quot;&gt;HTML&lt;br&gt;CSS&lt;br&gt;JS&lt;/span&gt;" style="edgeLabel;html=1;align=center;verticalAlign=middle;resizable=0;points=[];fontSize=16;fontStyle=2;labelBackgroundColor=default;" parent="6wxuXiDSxbBkrueSinT8-11" vertex="1" connectable="0">
          <mxGeometry x="-0.1271" y="-3" relative="1" as="geometry">
            <mxPoint x="4" y="25" as="offset" />
          </mxGeometry>
        </mxCell>
        <mxCell id="6wxuXiDSxbBkrueSinT8-13" value="USER&lt;br&gt;(Browser)" style="image;aspect=fixed;perimeter=ellipsePerimeter;html=1;align=center;shadow=0;dashed=0;fontColor=default;labelBackgroundColor=default;fontSize=12;spacingTop=3;image=img/lib/ibm/users/user.svg;fontStyle=1" parent="6wxuXiDSxbBkrueSinT8-1" vertex="1">
          <mxGeometry x="64" y="380" width="60" height="60" as="geometry" />
        </mxCell>
        <mxCell id="6wxuXiDSxbBkrueSinT8-14" style="edgeStyle=orthogonalEdgeStyle;rounded=0;orthogonalLoop=1;jettySize=auto;html=1;fontColor=default;fontStyle=1" parent="6wxuXiDSxbBkrueSinT8-1" target="6wxuXiDSxbBkrueSinT8-24" edge="1">
          <mxGeometry relative="1" as="geometry">
            <mxPoint x="320" y="207.00000000000023" as="sourcePoint" />
            <mxPoint x="461.7365948759857" y="93.05882352941171" as="targetPoint" />
            <Array as="points">
              <mxPoint x="330" y="207" />
              <mxPoint x="330" y="100" />
            </Array>
          </mxGeometry>
        </mxCell>
        <mxCell id="6wxuXiDSxbBkrueSinT8-15" value="TCP/IP&lt;br&gt;&lt;span style=&quot;font-style: normal;&quot;&gt;&lt;font style=&quot;font-size: 11px;&quot;&gt;SQL&lt;br&gt;Tables&lt;br&gt;&lt;/font&gt;&lt;/span&gt;" style="edgeLabel;html=1;align=center;verticalAlign=middle;resizable=0;points=[];fontSize=16;fontStyle=2;labelBackgroundColor=default;" parent="6wxuXiDSxbBkrueSinT8-14" vertex="1" connectable="0">
          <mxGeometry x="0.3313" y="-3" relative="1" as="geometry">
            <mxPoint x="19" y="15" as="offset" />
          </mxGeometry>
        </mxCell>
        <mxCell id="6wxuXiDSxbBkrueSinT8-16" value="BACKEND SERVER&lt;br&gt;(ASP.NET)" style="image;aspect=fixed;perimeter=ellipsePerimeter;html=1;align=center;shadow=0;dashed=0;fontColor=default;labelBackgroundColor=default;fontSize=12;spacingTop=3;image=img/lib/ibm/applications/app_server.svg;fontStyle=1" parent="6wxuXiDSxbBkrueSinT8-1" vertex="1">
          <mxGeometry x="290" y="204" width="60" height="60" as="geometry" />
        </mxCell>
        <mxCell id="6wxuXiDSxbBkrueSinT8-17" style="edgeStyle=orthogonalEdgeStyle;rounded=0;orthogonalLoop=1;jettySize=auto;html=1;fontColor=default;fontStyle=1" parent="6wxuXiDSxbBkrueSinT8-1" source="6wxuXiDSxbBkrueSinT8-19" target="6wxuXiDSxbBkrueSinT8-22" edge="1">
          <mxGeometry relative="1" as="geometry" />
        </mxCell>
        <mxCell id="6wxuXiDSxbBkrueSinT8-18" value="RESP3&lt;br&gt;&lt;span style=&quot;font-style: normal;&quot;&gt;&lt;font style=&quot;font-size: 11px;&quot;&gt;JSON&lt;/font&gt;&lt;/span&gt;" style="edgeLabel;html=1;align=center;verticalAlign=middle;resizable=0;points=[];fontSize=16;fontStyle=2" parent="6wxuXiDSxbBkrueSinT8-17" vertex="1" connectable="0">
          <mxGeometry x="0.1563" y="1" relative="1" as="geometry">
            <mxPoint x="-98" y="32" as="offset" />
          </mxGeometry>
        </mxCell>
        <mxCell id="6wxuXiDSxbBkrueSinT8-19" value="CLIENT APP&lt;br&gt;(Angular)" style="image;aspect=fixed;perimeter=ellipsePerimeter;html=1;align=center;shadow=0;dashed=0;fontColor=default;labelBackgroundColor=default;fontSize=12;spacingTop=3;image=img/lib/ibm/applications/api_developer_portal.svg;fontStyle=1" parent="6wxuXiDSxbBkrueSinT8-1" vertex="1">
          <mxGeometry x="290" y="380" width="60" height="60" as="geometry" />
        </mxCell>
        <mxCell id="6wxuXiDSxbBkrueSinT8-20" value="" style="html=1;labelBackgroundColor=#ffffff;endArrow=classic;endFill=1;endSize=6;jettySize=auto;orthogonalLoop=1;strokeWidth=1;fontSize=14;rounded=0;fontColor=default;fontStyle=1;edgeStyle=orthogonalEdgeStyle;" parent="6wxuXiDSxbBkrueSinT8-1" source="6wxuXiDSxbBkrueSinT8-16" target="6wxuXiDSxbBkrueSinT8-10" edge="1">
          <mxGeometry width="60" height="60" relative="1" as="geometry">
            <mxPoint x="540" y="231" as="sourcePoint" />
            <mxPoint x="600" y="171" as="targetPoint" />
          </mxGeometry>
        </mxCell>
        <mxCell id="6wxuXiDSxbBkrueSinT8-21" value="HTTP&lt;br&gt;&lt;span style=&quot;font-style: normal; font-size: 11px;&quot;&gt;JSON&lt;/span&gt;" style="edgeLabel;html=1;align=center;verticalAlign=middle;resizable=0;points=[];fontSize=16;fontStyle=2" parent="6wxuXiDSxbBkrueSinT8-20" vertex="1" connectable="0">
          <mxGeometry x="0.1898" y="-4" relative="1" as="geometry">
            <mxPoint x="7" y="14" as="offset" />
          </mxGeometry>
        </mxCell>
        <mxCell id="6wxuXiDSxbBkrueSinT8-22" value="CHESS PLAYERS &amp;amp; CLUBS&lt;br&gt;STORAGE&lt;br&gt;&lt;span style=&quot;font-weight: normal;&quot;&gt;REQUESTS CACHE&lt;/span&gt;&lt;br&gt;(Redis)" style="image;aspect=fixed;perimeter=ellipsePerimeter;html=1;align=center;shadow=0;dashed=0;fontColor=default;labelBackgroundColor=default;fontSize=12;spacingTop=3;image=img/lib/ibm/data/caches.svg;fontStyle=1" parent="6wxuXiDSxbBkrueSinT8-1" vertex="1">
          <mxGeometry x="465" y="204" width="60" height="60" as="geometry" />
        </mxCell>
        <mxCell id="6wxuXiDSxbBkrueSinT8-23" style="rounded=0;orthogonalLoop=1;jettySize=auto;html=1;edgeStyle=orthogonalEdgeStyle;fontColor=default;fontStyle=1" parent="6wxuXiDSxbBkrueSinT8-1" source="6wxuXiDSxbBkrueSinT8-16" target="6wxuXiDSxbBkrueSinT8-22" edge="1">
          <mxGeometry relative="1" as="geometry">
            <Array as="points">
              <mxPoint x="400" y="234" />
              <mxPoint x="400" y="234" />
            </Array>
          </mxGeometry>
        </mxCell>
        <mxCell id="6wxuXiDSxbBkrueSinT8-24" value="USER DATA STORAGE&lt;br&gt;(PostgreSQL)" style="image;aspect=fixed;perimeter=ellipsePerimeter;html=1;align=center;shadow=0;dashed=0;fontColor=default;labelBackgroundColor=default;fontSize=12;spacingTop=3;image=img/lib/ibm/data/data_services.svg;fontStyle=1" parent="6wxuXiDSxbBkrueSinT8-1" vertex="1">
          <mxGeometry x="465" y="70" width="60" height="60" as="geometry" />
        </mxCell>
        <mxCell id="6wxuXiDSxbBkrueSinT8-25" style="edgeStyle=orthogonalEdgeStyle;rounded=0;orthogonalLoop=1;jettySize=auto;html=1;" parent="6wxuXiDSxbBkrueSinT8-1" source="6wxuXiDSxbBkrueSinT8-28" target="6wxuXiDSxbBkrueSinT8-16" edge="1">
          <mxGeometry relative="1" as="geometry">
            <mxPoint x="124.99994232981771" y="100.05882352941171" as="sourcePoint" />
            <Array as="points">
              <mxPoint x="310" y="100" />
            </Array>
          </mxGeometry>
        </mxCell>
        <mxCell id="6wxuXiDSxbBkrueSinT8-26" value="HTTP&lt;br&gt;&lt;span style=&quot;font-style: normal;&quot;&gt;&lt;font style=&quot;font-size: 11px;&quot;&gt;JSON&lt;/font&gt;&lt;/span&gt;" style="edgeLabel;html=1;align=center;verticalAlign=middle;resizable=0;points=[];fontSize=16;fontStyle=2" parent="6wxuXiDSxbBkrueSinT8-25" vertex="1" connectable="0">
          <mxGeometry x="-0.5546" y="3" relative="1" as="geometry">
            <mxPoint x="10" y="12" as="offset" />
          </mxGeometry>
        </mxCell>
        <mxCell id="6wxuXiDSxbBkrueSinT8-27" value="RESP3&lt;br&gt;&lt;span style=&quot;font-style: normal;&quot;&gt;&lt;font style=&quot;font-size: 11px;&quot;&gt;JSON&lt;/font&gt;&lt;/span&gt;" style="edgeLabel;html=1;align=center;verticalAlign=middle;resizable=0;points=[];fontSize=16;fontStyle=2" parent="6wxuXiDSxbBkrueSinT8-1" vertex="1" connectable="0">
          <mxGeometry x="399.99746852442695" y="242.99632906663032" as="geometry">
            <mxPoint x="-2" y="1" as="offset" />
          </mxGeometry>
        </mxCell>
        <mxCell id="6wxuXiDSxbBkrueSinT8-28" value="API USERS" style="image;aspect=fixed;perimeter=ellipsePerimeter;html=1;align=center;shadow=0;dashed=0;fontColor=#000000;labelBackgroundColor=default;fontSize=12;spacingTop=3;image=img/lib/ibm/users/browser.svg;fontStyle=1" parent="6wxuXiDSxbBkrueSinT8-1" vertex="1">
          <mxGeometry x="65" y="70" width="60" height="60" as="geometry" />
        </mxCell>
      </root>
    </mxGraphModel>
  </diagram>
  <diagram id="ypa00pctvbJHgc3D8KdC" name="Страница — 3">
    <mxGraphModel dx="1114" dy="684" grid="1" gridSize="10" guides="1" tooltips="1" connect="1" arrows="1" fold="1" page="1" pageScale="1" pageWidth="827" pageHeight="1169" math="0" shadow="0">
      <root>
        <mxCell id="0" />
        <mxCell id="1" parent="0" />
      </root>
    </mxGraphModel>
  </diagram>
</mxfile>
